<svg width="440" height="508" viewBox="0 0 440 508" fill="none" xmlns="http://www.w3.org/2000/svg">
<circle cx="306" cy="340" r="300" fill="#F2FCFF"/>
<path d="M125.255 382.47C126.234 381.781 127.058 380.894 127.68 379.862L132.287 372.435C133.452 370.433 133.793 368.023 133.238 365.707C132.682 363.391 131.274 361.349 129.306 360.006C127.338 358.663 124.963 358.124 122.676 358.5C120.389 358.875 118.366 360.138 117.03 362.024L111.799 370.116C110.702 371.922 110.284 374.086 110.617 376.228C110.95 378.37 112.013 380.353 113.619 381.828C115.226 383.303 117.273 384.176 119.401 384.293C121.529 384.41 123.602 383.765 125.255 382.47Z" fill="#2DBEE6"/>
<path d="M89.0371 466.744C90.6627 465.662 91.8734 464.056 92.4838 462.172C93.8389 457.365 95.2782 452.574 96.8019 447.799C97.183 446.668 97.3376 445.463 97.2569 444.253C97.1761 443.044 96.8616 441.854 96.3312 440.75C95.8008 439.647 95.0651 438.652 94.1659 437.823C93.2667 436.994 92.2216 436.346 91.0905 435.917C89.9593 435.488 88.7641 435.286 87.5732 435.323C86.3823 435.359 85.219 435.634 84.1496 436.13C83.0803 436.627 82.1259 437.336 81.3409 438.217C80.5559 439.098 79.9557 440.134 79.5746 441.266C77.927 446.278 76.3171 451.189 74.7447 455.997C74.2206 457.819 74.2795 459.783 74.9131 461.613C75.5467 463.443 76.7232 465.047 78.277 466.199C79.8309 467.352 81.684 467.995 83.5758 468.038C85.4676 468.081 87.3029 467.522 88.8238 466.44L89.0371 466.744Z" fill="#2DBEE6"/>
<path d="M104.383 423.309C105.695 422.389 106.725 421.118 107.366 419.631C109.333 415.074 111.403 410.56 113.574 406.088C114.189 405.02 114.576 403.827 114.711 402.582C114.846 401.338 114.725 400.07 114.358 398.855C113.99 397.641 113.382 396.507 112.572 395.524C111.763 394.541 110.769 393.73 109.652 393.141C108.534 392.551 107.318 392.197 106.079 392.1C104.839 392.002 103.602 392.163 102.445 392.573C101.288 392.984 100.236 393.634 99.3535 394.484C98.471 395.334 97.7773 396.365 97.3155 397.514C95.0199 402.224 92.8265 406.977 90.7351 411.771C89.9538 413.587 89.7925 415.636 90.276 417.602C90.7595 419.568 91.8611 421.343 93.4115 422.653C94.9619 423.964 96.8753 424.738 98.8575 424.857C100.84 424.975 102.781 424.432 104.383 423.309Z" fill="#2DBEE6"/>
<path d="M80.2658 506.024C82.178 504.671 83.4606 502.59 83.8372 500.23L85.3821 491.545C85.6033 490.369 85.592 489.152 85.3491 487.963C85.1061 486.774 84.6361 485.637 83.9659 484.616C83.2957 483.595 82.4385 482.71 81.4432 482.012C80.4478 481.314 79.3339 480.817 78.1649 480.548C76.996 480.28 75.7949 480.246 74.6303 480.448C73.4657 480.649 72.3604 481.084 71.3774 481.725C70.3944 482.367 69.5531 483.203 68.9014 484.187C68.2497 485.17 67.8005 486.282 67.5793 487.457L65.9552 496.652C65.6701 498.439 65.9198 500.291 66.6728 501.973C67.4257 503.655 68.6477 505.09 70.1829 506.096C71.718 507.101 73.4969 507.631 75.2927 507.618C77.0884 507.606 78.8197 507.051 80.2658 506.024Z" fill="#2DBEE6"/>
<path d="M429.651 225.848C432.05 226.032 434.388 225.245 436.149 223.659C437.911 222.073 438.952 219.819 439.044 217.393C439.136 214.966 438.271 212.565 436.64 210.719C435.008 208.873 432.744 207.732 430.345 207.548C425.11 207.132 419.945 206.97 414.849 207.063C413.535 206.721 412.174 206.679 410.864 206.938C409.554 207.196 408.328 207.75 407.276 208.559C406.224 209.368 405.372 210.411 404.782 211.613C404.191 212.815 403.878 214.145 403.864 215.507C403.85 216.869 404.137 218.228 404.702 219.485C405.267 220.743 406.097 221.868 407.132 222.777C408.167 223.687 409.38 224.359 410.683 224.744C411.987 225.129 413.348 225.218 414.667 225.004C419.604 225.099 424.599 225.38 429.651 225.848Z" fill="#2DBEE6"/>
<path d="M369.863 226.566C374.807 226.05 379.757 225.645 384.711 225.35C386.904 224.969 388.849 223.772 390.171 221.989C391.492 220.207 392.095 217.966 391.863 215.7C391.632 213.434 390.582 211.304 388.917 209.722C387.252 208.141 385.09 207.22 382.849 207.138C377.629 207.469 372.414 207.909 367.203 208.46C365.965 208.503 364.759 208.803 363.659 209.342C362.559 209.882 361.589 210.649 360.809 211.597C360.029 212.545 359.455 213.652 359.124 214.851C358.793 216.049 358.711 217.313 358.884 218.564C359.056 219.816 359.48 221.027 360.128 222.123C360.776 223.22 361.634 224.178 362.65 224.938C363.666 225.698 364.818 226.244 366.033 226.541C367.249 226.839 368.502 226.882 369.716 226.669L369.863 226.566Z" fill="#2DBEE6"/>
<path d="M331.754 232.853L340.308 231.056C341.503 230.868 342.641 230.436 343.651 229.785C344.661 229.134 345.523 228.277 346.186 227.268C346.849 226.258 347.299 225.115 347.508 223.908C347.718 222.7 347.684 221.453 347.407 220.241C347.13 219.029 346.617 217.877 345.898 216.854C345.179 215.831 344.269 214.959 343.222 214.288C342.175 213.617 341.014 213.163 339.807 212.952C338.6 212.741 337.372 212.777 336.198 213.059L327.172 214.96C324.944 215.573 323.067 217.043 321.933 219.065C320.8 221.087 320.497 223.503 321.088 225.811C321.679 228.119 323.118 230.14 325.105 231.452C327.093 232.764 329.474 233.266 331.754 232.853Z" fill="#2DBEE6"/>
<path d="M327.7 350.477C286.392 379.395 252.298 417.516 227.89 462.078C224.997 467.282 222.337 472.664 219.75 477.995L219.311 478.302L218.211 480.776C215.863 485.826 213.617 490.917 211.473 496.051L211.042 497.147L211.434 496.305C207.131 506.81 203.461 517.438 200.223 528.218L197.873 536.219C196.94 539.71 196.133 543.225 195.2 546.716C194.267 550.206 193.553 553.543 192.82 557.008L191.598 563.197L191.717 562.433C191.109 565.922 190.376 569.386 189.769 572.875L189.403 573.132C188.814 577.332 189.052 581.639 190.103 585.808C191.155 589.978 193 593.927 195.532 597.429L217.504 628.777C217.279 626.974 217.212 625.161 217.303 623.358C220.263 581.437 230.654 540.679 247.98 503.027C252.674 493.185 260.468 485.285 270.178 480.526C279.887 475.768 290.984 474.412 301.782 476.663C320.298 480.295 338.063 487.566 354.061 498.061C370.06 508.555 383.978 522.068 395.02 537.826L398.273 542.468C400.1 545.211 402.44 547.574 405.154 549.415C407.868 551.256 410.9 552.537 414.068 553.182C418.521 553.88 422.748 555.783 426.3 558.688C429.853 561.593 432.598 565.39 434.243 569.677C435.259 571.888 436.739 573.86 438.575 575.451C440.412 577.043 442.559 578.214 444.862 578.88C447.165 579.546 449.566 579.69 451.891 579.302C454.217 578.914 456.409 578.004 458.309 576.637L569.503 498.699C571.358 497.444 572.901 495.777 574.02 493.818C575.139 491.859 575.806 489.657 575.975 487.369C576.143 485.082 575.808 482.766 574.994 480.588C574.18 478.41 572.906 476.423 571.265 474.771C569.128 472.765 567.202 470.539 565.521 468.131L561.895 462.957C555.479 453.83 545.843 447.524 535.106 445.425L516.773 441.822C511.207 440.575 505.494 440.445 499.962 441.441C494.43 442.437 489.188 444.538 484.536 447.625C480.169 450.721 475.206 452.884 469.935 453.988C464.664 455.092 459.19 455.115 453.83 454.056L408.313 445.112C397.643 442.957 388.086 436.646 381.724 427.553C377.247 421.215 374.197 413.99 372.799 406.413C371.401 398.837 371.691 391.102 373.647 383.782C375.604 376.462 379.177 369.744 384.101 364.125C389.026 358.506 395.177 354.129 402.098 351.32L403.268 350.5C451.164 330.164 503.872 322.834 556.349 329.211C580.713 331.56 604.861 336.503 628.391 343.958L605.139 310.784C600.221 303.538 592.74 298.458 584.336 296.659C493.854 279.151 401.56 298.506 327.7 350.477Z" fill="#2DBEE6"/>
<path d="M170.838 372.532C171.509 372.062 172.054 371.433 172.429 370.697C172.804 369.961 172.998 369.139 172.994 368.298L172.768 339.977C172.757 338.729 173.152 337.528 173.891 336.559C174.63 335.59 175.673 334.906 176.858 334.614L180.456 333.68C194.506 330.131 207.793 324.229 219.781 316.215C219.864 316.156 219.959 316.116 220.06 316.098C220.161 316.08 220.265 316.084 220.366 316.11C220.467 316.136 220.562 316.183 220.645 316.249C220.728 316.314 220.796 316.397 220.846 316.49L262.83 390.544C263.436 391.636 264.394 392.491 265.538 392.957C266.681 393.423 267.935 393.47 269.077 393.09C270.22 392.71 271.178 391.927 271.783 390.88C272.387 389.833 272.598 388.589 272.379 387.368L256.334 290.595L287.039 269.073C294.78 263.658 300.818 256.128 304.491 247.31C305.295 245.428 305.596 243.348 305.362 241.274C305.129 239.2 304.371 237.202 303.162 235.477C301.952 233.751 300.333 232.357 298.463 231.43C296.593 230.504 294.535 230.076 292.492 230.19C282.95 230.635 273.812 233.743 266.08 239.171L235.376 260.693L149.448 212.447C148.375 211.825 147.133 211.599 145.943 211.81C144.753 212.021 143.69 212.654 142.943 213.599C142.196 214.544 141.813 215.738 141.861 216.972C141.909 218.205 142.385 219.398 143.206 220.34L198.495 285.068C198.548 285.183 198.572 285.309 198.564 285.434C198.556 285.558 198.517 285.678 198.449 285.781C186.878 294.207 176.82 304.553 168.676 316.407L166.571 319.471C165.892 320.485 164.894 321.232 163.73 321.596C162.567 321.96 161.304 321.922 160.135 321.486L133.59 311.612C132.507 311.362 131.387 311.461 130.388 311.895C129.389 312.329 128.562 313.076 128.025 314.03C127.487 314.984 127.266 316.097 127.393 317.211C127.52 318.325 127.989 319.383 128.732 320.236L150.397 341.814L163.29 369.54C163.561 370.272 163.983 370.941 164.528 371.501C165.073 372.061 165.727 372.499 166.446 372.784C167.164 373.068 167.929 373.193 168.688 373.15C169.446 373.106 170.18 372.896 170.838 372.532Z" fill="#2DBEE6"/>
</svg>
