<svg width="1361" height="709" viewBox="0 0 1361 709" fill="none" xmlns="http://www.w3.org/2000/svg">
<g filter="url(#filter0_d_61_110)">
<path d="M2140 914C2140 1466.28 1692.28 1914 1140 1914C587.715 1914 140 1466.28 140 914C140 361.715 587.715 -86 1140 -86C1692.28 -86 2140 361.715 2140 914Z" fill="#F2FCFF"/>
<path d="M203.562 603.676C206.745 601.546 209.45 598.773 211.517 595.52L226.818 572.111C230.698 565.795 231.97 558.11 230.369 550.66C228.768 543.21 224.418 536.57 218.225 532.124C212.032 527.679 204.475 525.771 197.13 526.799C189.786 527.827 183.22 531.712 178.804 537.643L161.455 563.131C157.81 568.825 156.307 575.717 157.21 582.594C158.112 589.472 161.363 595.895 166.39 600.736C171.418 605.577 177.9 608.525 184.699 609.063C191.497 609.601 198.176 607.693 203.562 603.676Z" fill="#2DBEE6"/>
<path d="M133.688 732.737C137.955 729.894 141.347 725.907 143.507 721.196C150.147 706.771 157.109 692.488 164.396 678.347C166.444 674.977 167.772 671.189 168.298 667.219C168.823 663.249 168.535 659.182 167.45 655.27C166.365 651.357 164.508 647.684 161.993 644.477C159.478 641.27 156.359 638.599 152.83 636.63C149.301 634.66 145.437 633.434 141.479 633.027C137.521 632.62 133.553 633.042 129.821 634.266C126.089 635.49 122.673 637.49 119.786 640.141C116.899 642.793 114.601 646.04 113.037 649.68C105.336 664.574 97.9591 679.609 90.9053 694.786C88.268 700.536 87.5965 707.078 88.9941 713.404C90.3917 719.73 93.7809 725.492 98.6409 729.803C103.501 734.114 109.563 736.736 115.895 737.267C122.226 737.797 128.478 736.205 133.688 732.737Z" fill="#2DBEE6"/>
<path d="M1312.07 144.726C1315.81 145.541 1319.65 145.604 1323.36 144.912C1327.07 144.221 1330.59 142.788 1333.7 140.696C1336.82 138.603 1339.48 135.893 1341.52 132.718C1343.57 129.543 1344.96 125.967 1345.63 122.194C1346.29 118.42 1346.21 114.523 1345.4 110.725C1344.58 106.928 1343.04 103.303 1340.86 100.059C1338.68 96.8147 1335.91 94.0143 1332.71 91.8178C1329.51 89.6213 1325.93 88.0715 1322.19 87.257L1292.89 81.4062C1285.29 79.9766 1277.56 81.6516 1271.39 86.0629C1265.22 90.4742 1261.12 97.2603 1259.99 104.928C1258.86 112.597 1260.79 120.519 1265.37 126.952C1269.94 133.385 1276.78 137.802 1284.38 139.232L1312.07 144.726Z" fill="#2DBEE6"/>
<path d="M1189.26 125.779C1196.92 126.551 1204.46 124.21 1210.21 119.271C1215.97 114.333 1219.47 107.201 1219.95 99.4451C1220.43 91.689 1217.84 83.9439 1212.76 77.9135C1207.69 71.8832 1200.53 68.0617 1192.87 67.2896C1176.16 65.5602 1159.65 64.649 1143.34 64.5561C1139.16 63.3644 1134.81 63.124 1130.6 63.8523C1126.39 64.5806 1122.43 66.2594 1119 68.7665C1115.57 71.2736 1112.77 74.5459 1110.79 78.3455C1108.81 82.1451 1107.71 86.3765 1107.56 90.7318C1107.41 95.0871 1108.22 99.4568 1109.94 103.523C1111.65 107.589 1114.22 111.25 1117.46 114.239C1120.7 117.228 1124.53 119.469 1128.67 120.801C1132.81 122.132 1137.16 122.52 1141.39 121.937C1157.18 122.617 1173.14 123.897 1189.26 125.779Z" fill="#2DBEE6"/>
<path d="M997.944 123.526C1013.8 122.253 1029.66 121.333 1045.53 120.766C1052.58 119.716 1058.89 116.034 1063.25 110.432C1067.62 104.831 1069.72 97.7071 1069.15 90.4404C1068.58 83.1737 1065.38 76.2804 1060.17 71.0942C1054.97 65.9081 1048.12 62.7978 1040.96 62.3653C1024.24 63.0247 1007.52 64.0371 990.811 65.4025C986.849 65.4433 982.967 66.3119 979.408 67.9542C975.848 69.5965 972.686 71.9776 970.119 74.9494C967.551 77.9213 965.632 81.4204 964.482 85.2295C963.332 89.0386 962.974 93.0763 963.432 97.0917C963.889 101.107 965.152 105.014 967.141 108.571C969.131 112.128 971.805 115.258 974.997 117.766C978.189 120.275 981.831 122.109 985.697 123.154C989.563 124.2 993.57 124.434 997.469 123.842L997.944 123.526Z" fill="#2DBEE6"/>
<path d="M875.548 140.744L903.046 135.647C906.886 135.136 910.556 133.839 913.836 131.834C917.117 129.828 919.94 127.155 922.137 123.975C924.334 120.795 925.86 117.174 926.623 113.328C927.386 109.482 927.37 105.49 926.577 101.592C925.783 97.6936 924.229 93.9693 922.006 90.6419C919.783 87.3146 916.938 84.4526 913.641 82.2276C910.343 80.0025 906.662 78.46 902.817 77.6927C898.972 76.9253 895.043 76.9488 891.265 77.7617L862.249 83.1554C855.074 84.9448 848.959 89.5058 845.179 95.8867C841.399 102.268 840.247 109.976 841.963 117.404C843.678 124.832 848.128 131.406 854.386 135.754C860.643 140.103 868.225 141.89 875.548 140.744Z" fill="#2DBEE6"/>
<path d="M908.768 501.431C774.418 590.8 662.449 710.161 580.978 850.861C571.327 867.292 562.408 884.307 553.727 901.163L552.3 902.114L548.59 909.943C540.695 925.919 533.124 942.036 525.875 958.296L524.414 961.77L525.729 959.107C511.166 992.385 498.616 1026.11 487.438 1060.35L479.311 1085.76C476.061 1096.86 473.213 1108.05 469.963 1119.14C466.712 1130.24 464.175 1140.86 461.565 1151.88L457.185 1171.59L457.623 1169.16C455.416 1180.27 452.806 1191.3 450.598 1202.42L449.409 1203.21C447.204 1216.6 447.638 1230.4 450.685 1243.81C453.732 1257.23 459.333 1270.01 467.167 1281.4L535.074 1383.36C534.492 1377.57 534.415 1371.77 534.844 1366.01C547.501 1232.12 583.841 1102.53 642.132 983.391C657.898 952.26 683.431 927.58 714.856 913.097C746.281 898.614 781.883 895.118 816.256 903.142C875.214 916.167 931.493 940.779 981.875 975.569C1032.26 1010.36 1075.75 1054.65 1109.88 1105.9L1119.94 1120.99C1125.57 1129.91 1132.88 1137.65 1141.42 1143.74C1149.96 1149.84 1159.56 1154.17 1169.65 1156.47C1183.84 1159.04 1197.22 1165.45 1208.36 1175.02C1219.51 1184.58 1228 1196.94 1232.94 1210.77C1236.02 1217.92 1240.6 1224.35 1246.36 1229.58C1252.11 1234.81 1258.89 1238.72 1266.21 1241.02C1273.53 1243.33 1281.2 1243.97 1288.66 1242.91C1296.13 1241.84 1303.22 1239.1 1309.4 1234.87L1671.05 993.996C1677.08 990.12 1682.14 984.904 1685.87 978.722C1689.59 972.541 1691.9 965.547 1692.61 958.242C1693.32 950.937 1692.43 943.503 1689.99 936.473C1687.55 929.443 1683.63 922.991 1678.5 917.581C1671.82 911.001 1665.83 903.733 1660.63 895.903L1649.42 879.076C1629.59 849.388 1599.25 828.481 1565.06 820.95L1506.68 808.031C1488.97 803.617 1470.71 802.768 1452.93 805.533C1435.16 808.297 1418.23 814.622 1403.11 824.142C1388.91 833.715 1372.86 840.257 1355.92 843.388C1338.97 846.519 1321.46 846.177 1304.39 842.381L1159.46 810.306C1125.49 802.601 1095.4 781.685 1075.73 752.111C1061.89 731.495 1052.68 708.15 1048.79 683.806C1044.89 659.462 1046.41 634.741 1053.22 611.472C1060.04 588.203 1071.98 566.983 1088.16 549.381C1104.34 531.779 1124.35 518.246 1146.71 509.783L1150.51 507.249C1305.28 445.835 1474.46 426.393 1641.85 450.785C1719.62 460.153 1796.49 477.803 1871.2 503.442L1799.34 395.548C1784.16 371.992 1760.61 355.172 1733.86 348.776C1445.73 285.888 1149 340.788 908.768 501.431Z" fill="#2DBEE6"/>
<path d="M350.142 575.352C352.324 573.9 354.116 571.929 355.371 569.603C356.626 567.277 357.308 564.661 357.362 561.97L358.791 471.351C358.852 467.359 360.207 463.547 362.645 460.503C365.083 457.459 368.47 455.351 372.284 454.504L383.865 451.793C429.081 441.505 472.037 423.637 510.999 398.91C511.269 398.727 511.576 398.607 511.9 398.556C512.224 398.506 512.557 398.527 512.878 398.618C513.199 398.708 513.499 398.867 513.759 399.083C514.019 399.299 514.232 399.568 514.385 399.87L643.064 639.968C644.917 643.509 647.92 646.316 651.541 647.894C655.163 649.471 659.171 649.717 662.856 648.589C666.54 647.46 669.665 645.029 671.678 641.725C673.69 638.421 674.461 634.458 673.853 630.536L629.884 319.727L729.748 253.214C754.923 236.478 774.812 212.848 787.234 184.917C789.949 178.958 791.068 172.327 790.48 165.674C789.893 159.021 787.619 152.573 783.881 146.961C780.143 141.349 775.07 136.766 769.157 133.659C763.244 130.553 756.695 129.029 750.149 129.238C719.589 129.936 690.119 139.181 664.973 155.961L565.11 222.474L293.886 61.5984C290.501 59.5259 286.547 58.7093 282.723 59.2931C278.899 59.8768 275.451 61.8232 272.99 64.7883C270.528 67.7534 269.21 71.5461 269.27 75.4961C269.33 79.446 270.763 83.2988 273.317 86.3732L445.27 297.648C445.432 298.021 445.499 298.425 445.464 298.824C445.429 299.222 445.293 299.602 445.071 299.925C407.412 326.003 374.45 358.337 347.493 395.638L340.528 405.279C338.277 408.472 335.026 410.785 331.277 411.861C327.528 412.938 323.489 412.719 319.782 411.237L235.613 377.63C232.169 376.747 228.578 376.978 225.349 378.29C222.121 379.603 219.419 381.93 217.627 384.942C215.835 387.954 215.043 391.498 215.365 395.071C215.686 398.644 217.104 402.066 219.418 404.85L287.086 475.526L326.222 565.206C327.032 567.567 328.333 569.74 330.034 571.574C331.735 573.407 333.795 574.857 336.071 575.822C338.347 576.788 340.785 577.246 343.215 577.165C345.645 577.083 348.009 576.465 350.142 575.352Z" fill="#2DBEE6"/>
</g>
<defs>
<filter id="filter0_d_61_110" x="0.691917" y="-86" width="2143.31" height="2008" filterUnits="userSpaceOnUse" color-interpolation-filters="sRGB">
<feFlood flood-opacity="0" result="BackgroundImageFix"/>
<feColorMatrix in="SourceAlpha" type="matrix" values="0 0 0 0 0 0 0 0 0 0 0 0 0 0 0 0 0 0 127 0" result="hardAlpha"/>
<feOffset dy="4"/>
<feGaussianBlur stdDeviation="2"/>
<feComposite in2="hardAlpha" operator="out"/>
<feColorMatrix type="matrix" values="0 0 0 0 0 0 0 0 0 0 0 0 0 0 0 0 0 0 0.25 0"/>
<feBlend mode="normal" in2="BackgroundImageFix" result="effect1_dropShadow_61_110"/>
<feBlend mode="normal" in="SourceGraphic" in2="effect1_dropShadow_61_110" result="shape"/>
</filter>
</defs>
</svg>
