<svg width="292" height="60" viewBox="0 0 292 60" fill="none" xmlns="http://www.w3.org/2000/svg">
<circle cx="30" cy="30" r="30" fill="#2DBEE6"/>
<path d="M13.0758 16.9061C13.2099 16.9059 13.3425 16.8786 13.4658 16.8261L14.3658 16.4561C14.6014 16.3517 14.7876 16.1603 14.8855 15.9219C14.9834 15.6835 14.9855 15.4165 14.8914 15.1766C14.7972 14.9367 14.6141 14.7424 14.3802 14.6342C14.1462 14.5261 13.8796 14.5124 13.6358 14.5961L12.6358 14.9861C12.4191 15.0776 12.2416 15.2424 12.1345 15.4518C12.0273 15.6611 11.9974 15.9016 12.0499 16.1308C12.1024 16.36 12.2341 16.5634 12.4217 16.7052C12.6093 16.847 12.8409 16.9181 13.0758 16.9061Z" fill="white"/>
<path d="M4.33581 22.0961C4.55445 22.1012 4.76872 22.0344 4.94581 21.9061C5.37914 21.5661 5.81915 21.2328 6.26581 20.9061C6.3735 20.8299 6.46512 20.7333 6.53546 20.6217C6.6058 20.5102 6.65348 20.3858 6.67576 20.2558C6.69805 20.1258 6.69451 19.9927 6.66535 19.8641C6.63619 19.7354 6.58198 19.6138 6.50581 19.5061C6.42965 19.3984 6.33301 19.3068 6.22144 19.2365C6.10986 19.1661 5.98552 19.1184 5.85552 19.0962C5.72552 19.0739 5.5924 19.0774 5.46376 19.1066C5.33513 19.1357 5.2135 19.1899 5.10581 19.2661C4.63248 19.6061 4.16915 19.9394 3.71581 20.2661C3.55064 20.3943 3.4298 20.571 3.37027 20.7714C3.31075 20.9718 3.31554 21.1859 3.38396 21.3834C3.45239 21.581 3.58102 21.7521 3.75175 21.8728C3.92249 21.9934 4.12675 22.0576 4.33581 22.0561V22.0961Z" fill="white"/>
<path d="M8.53582 19.2161C8.7153 19.2161 8.89146 19.1677 9.04582 19.0761C9.51915 18.7961 9.99915 18.5261 10.4858 18.2661C10.6109 18.21 10.7231 18.1287 10.8154 18.0274C10.9078 17.926 10.9783 17.8068 11.0226 17.6771C11.0669 17.5473 11.0841 17.4099 11.073 17.2732C11.062 17.1366 11.023 17.0036 10.9584 16.8827C10.8938 16.7618 10.805 16.6554 10.6976 16.5702C10.5902 16.4851 10.4664 16.4229 10.3339 16.3876C10.2014 16.3522 10.0631 16.3445 9.92754 16.3649C9.79196 16.3853 9.66203 16.4334 9.54582 16.5061C9.03248 16.7794 8.52582 17.0628 8.02582 17.3561C7.8374 17.4679 7.69091 17.6385 7.60887 17.8416C7.52683 18.0448 7.51377 18.2693 7.57171 18.4805C7.62964 18.6918 7.75536 18.8783 7.92954 19.0111C8.10372 19.144 8.31673 19.216 8.53582 19.2161Z" fill="white"/>
<path d="M1.00582 25.0161C1.26816 25.015 1.51955 24.9109 1.70582 24.7261L2.40582 24.0561C2.50168 23.9662 2.57889 23.8582 2.63303 23.7384C2.68718 23.6186 2.71719 23.4893 2.72137 23.3579C2.72555 23.2265 2.70381 23.0956 2.65739 22.9726C2.61096 22.8496 2.54077 22.737 2.45082 22.6411C2.36086 22.5452 2.2529 22.468 2.13311 22.4139C2.01332 22.3598 1.88403 22.3297 1.75264 22.3256C1.62124 22.3214 1.49031 22.3431 1.36732 22.3895C1.24432 22.436 1.13168 22.5062 1.03582 22.5961L0.295816 23.3061C0.154787 23.446 0.0586059 23.6247 0.0195363 23.8194C-0.0195334 24.0142 0.000278115 24.2161 0.0764449 24.3996C0.152612 24.583 0.281683 24.7396 0.447202 24.8494C0.612722 24.9592 0.807191 25.0173 1.00582 25.0161Z" fill="white"/>
<path d="M54.2758 24.7261C54.3691 24.8187 54.4796 24.892 54.6012 24.9419C54.7228 24.9917 54.853 25.0171 54.9843 25.0167C55.1157 25.0162 55.2458 24.9899 55.367 24.9392C55.4882 24.8884 55.5982 24.8144 55.6908 24.7211C55.7834 24.6279 55.8567 24.5173 55.9066 24.3957C55.9564 24.2742 55.9818 24.144 55.9814 24.0126C55.9809 23.8812 55.9546 23.7512 55.9039 23.63C55.8531 23.5087 55.7791 23.3987 55.6858 23.3061L54.9458 22.5961C54.7522 22.4144 54.4944 22.3171 54.229 22.3256C53.9636 22.334 53.7125 22.4475 53.5308 22.6411C53.3491 22.8347 53.2518 23.0926 53.2603 23.3579C53.2687 23.6233 53.3822 23.8744 53.5758 24.0561L54.2758 24.7261Z" fill="white"/>
<path d="M51.0658 21.9061C51.274 22.0705 51.539 22.1455 51.8025 22.1146C52.066 22.0837 52.3064 21.9493 52.4708 21.7411C52.6353 21.5329 52.7102 21.2679 52.6793 21.0044C52.6484 20.741 52.514 20.5005 52.3058 20.3361C51.8525 19.9761 51.3892 19.6428 50.9158 19.3361C50.8173 19.2249 50.6951 19.137 50.5584 19.0789C50.4216 19.0208 50.2735 18.9939 50.1251 19.0002C49.9766 19.0065 49.8314 19.0458 49.7 19.1153C49.5686 19.1847 49.4543 19.2826 49.3655 19.4018C49.2767 19.5209 49.2156 19.6584 49.1866 19.8042C49.1576 19.9499 49.1614 20.1003 49.1979 20.2444C49.2343 20.3885 49.3024 20.5226 49.3972 20.6371C49.4919 20.7516 49.6111 20.8435 49.7458 20.9061C50.1925 21.2194 50.6325 21.5528 51.0658 21.9061Z" fill="white"/>
<path d="M45.5358 18.2761C46.0225 18.5361 46.5025 18.8061 46.9758 19.0861C47.2014 19.1881 47.4568 19.2027 47.6926 19.1272C47.9283 19.0518 48.1277 18.8915 48.2522 18.6775C48.3766 18.4635 48.4172 18.2109 48.3662 17.9687C48.3151 17.7264 48.176 17.5117 47.9758 17.3661C47.4758 17.0728 46.9692 16.7894 46.4558 16.5161C46.3396 16.4434 46.2097 16.3953 46.0741 16.3749C45.9385 16.3545 45.8002 16.3622 45.6677 16.3976C45.5353 16.4329 45.4115 16.4951 45.304 16.5802C45.1966 16.6654 45.1079 16.7718 45.0433 16.8927C44.9787 17.0136 44.9397 17.1466 44.9286 17.2832C44.9175 17.4199 44.9347 17.5573 44.979 17.6871C45.0233 17.8168 45.0939 17.936 45.1862 18.0374C45.2785 18.1387 45.3907 18.22 45.5158 18.2761H45.5358Z" fill="white"/>
<path d="M41.6358 16.4761L42.5358 16.8461C42.6576 16.9034 42.7897 16.9355 42.9242 16.9405C43.0587 16.9456 43.1928 16.9234 43.3185 16.8753C43.4442 16.8273 43.5589 16.7543 43.6558 16.6609C43.7526 16.5675 43.8296 16.4554 43.8822 16.3315C43.9347 16.2076 43.9617 16.0744 43.9615 15.9398C43.9613 15.8052 43.9339 15.6721 43.881 15.5483C43.8282 15.4245 43.7508 15.3127 43.6537 15.2196C43.5566 15.1264 43.4417 15.0538 43.3158 15.0061L42.3658 14.6161C42.1221 14.5324 41.8554 14.5461 41.6215 14.6542C41.3875 14.7624 41.2044 14.9567 41.1103 15.1966C41.0161 15.4365 41.0182 15.7035 41.1161 15.9419C41.214 16.1803 41.4002 16.3717 41.6358 16.4761Z" fill="white"/>
<path d="M28.0058 28.9061C22.3576 28.9029 16.7795 30.1565 11.6758 32.5761C11.0758 32.8561 10.4858 33.1661 9.90582 33.4761H9.84582L9.58582 33.6261C9.04582 33.9261 8.51248 34.2361 7.98582 34.5561L7.87582 34.6261L7.96582 34.5761C6.89582 35.2361 5.87582 35.9461 4.88582 36.6961L4.15582 37.2561C3.84582 37.5061 3.54582 37.7661 3.23582 38.0161C2.92582 38.2661 2.64582 38.5161 2.35582 38.7761L1.84582 39.2461L1.90582 39.1861C1.62582 39.4561 1.33582 39.7161 1.05582 39.9861H1.00582C0.68173 40.3198 0.426599 40.7142 0.255012 41.1466C0.0834248 41.579 -0.00125341 42.041 0.00581831 42.5061V46.6261C0.101129 46.4534 0.211561 46.2894 0.335818 46.1361C3.30247 42.6244 6.8759 39.6742 10.8858 37.4261C11.9492 36.8486 13.172 36.6338 14.3685 36.8143C15.5651 36.9947 16.6701 37.5607 17.5158 38.4261C18.9807 39.8899 20.1427 41.6281 20.9355 43.5413C21.7282 45.4545 22.1361 47.5052 22.1358 49.5761V50.1861C22.127 50.5408 22.1897 50.8936 22.3203 51.2235C22.4509 51.5534 22.6466 51.8536 22.8958 52.1061C23.2593 52.4427 23.5247 52.8715 23.6638 53.347C23.8029 53.8224 23.8105 54.3267 23.6858 54.8061C23.6369 55.0637 23.6459 55.3289 23.712 55.5827C23.7781 55.8364 23.8998 56.0722 24.0682 56.2732C24.2366 56.4741 24.4476 56.6351 24.6858 56.7446C24.9241 56.8541 25.1836 56.9092 25.4458 56.9061H40.6558C40.9067 56.9101 41.1554 56.8584 41.3839 56.7549C41.6125 56.6514 41.8153 56.4985 41.9778 56.3073C42.1403 56.1161 42.2585 55.8913 42.3239 55.6491C42.3892 55.4068 42.4001 55.1531 42.3558 54.9061C42.2887 54.5973 42.2552 54.2821 42.2558 53.9661V53.2861C42.2541 52.0853 41.7757 50.9343 40.9258 50.0861L39.4758 48.6361C39.0455 48.1824 38.5298 47.818 37.9584 47.5641C37.3869 47.3101 36.771 47.1715 36.1458 47.1561C35.5462 47.1592 34.9519 47.0433 34.3975 46.815C33.843 46.5867 33.3394 46.2505 32.9158 45.8261L29.3158 42.2261C28.4757 41.3771 28.0048 40.2306 28.0058 39.0361C28.0027 38.201 28.1874 37.3758 28.5463 36.6218C28.9052 35.8677 29.429 35.2039 30.0791 34.6796C30.7291 34.1554 31.4888 33.784 32.3018 33.593C33.1148 33.4019 33.9603 33.3962 34.7758 33.5761H34.9358C40.6365 34.7425 45.9424 37.3524 50.3458 41.1561C52.4296 42.8682 54.3268 44.7956 56.0058 46.9061V42.5461C56.0206 41.6036 55.6609 40.6938 55.0058 40.0161C47.8319 32.8838 38.1219 28.8883 28.0058 28.9061Z" fill="white"/>
<path d="M17.8958 18.8461C17.9876 18.8461 18.078 18.8244 18.1597 18.7827C18.2414 18.7409 18.312 18.6804 18.3658 18.6061L20.1658 16.0961C20.2451 15.9855 20.3585 15.9041 20.4886 15.8643C20.6187 15.8246 20.7583 15.8287 20.8858 15.8761L21.2758 16.0161C22.7927 16.5712 24.3909 16.8719 26.0058 16.9061C26.0172 16.906 26.0285 16.9084 26.0389 16.913C26.0494 16.9176 26.0587 16.9244 26.0662 16.933C26.0738 16.9415 26.0795 16.9515 26.0829 16.9624C26.0862 16.9733 26.0872 16.9848 26.0858 16.9961L25.1758 26.1161C25.1611 26.2498 25.1941 26.3843 25.269 26.496C25.3439 26.6077 25.4559 26.6893 25.5851 26.7264C25.7144 26.7635 25.8526 26.7537 25.9753 26.6988C26.0981 26.6438 26.1974 26.5472 26.2558 26.4261L31.0058 16.9061H35.2058C36.264 16.907 37.302 16.6164 38.2058 16.0661C38.4006 15.9499 38.5618 15.7852 38.6738 15.588C38.7858 15.3908 38.8446 15.1679 38.8446 14.9411C38.8446 14.7143 38.7858 14.4914 38.6738 14.2943C38.5618 14.0971 38.4006 13.9323 38.2058 13.8161C37.302 13.2659 36.264 12.9752 35.2058 12.9761H31.0058L26.2258 3.41611C26.1674 3.29498 26.0681 3.19841 25.9453 3.14345C25.8226 3.0885 25.6844 3.0787 25.5551 3.1158C25.4259 3.15291 25.3139 3.23451 25.239 3.34619C25.1641 3.45788 25.1311 3.59245 25.1458 3.72611L26.0558 12.8461C26.0533 12.8596 26.0474 12.8721 26.0386 12.8826C26.0299 12.8931 26.0186 12.9012 26.0058 12.9061C24.4027 12.934 22.815 13.2245 21.3058 13.7661L20.9158 13.9061C20.7883 13.9535 20.6487 13.9577 20.5186 13.9179C20.3885 13.8782 20.2751 13.7967 20.1958 13.6861L18.3958 11.1761C18.3126 11.0872 18.2035 11.0267 18.084 11.0032C17.9644 10.9798 17.8406 10.9946 17.7299 11.0455C17.6193 11.0964 17.5274 11.1808 17.4675 11.2868C17.4075 11.3928 17.3824 11.515 17.3958 11.6361L17.9958 14.8761L17.3958 18.1161C17.3736 18.1973 17.3693 18.2824 17.3833 18.3654C17.3973 18.4485 17.4292 18.5275 17.4767 18.5969C17.5243 18.6664 17.5865 18.7247 17.6588 18.7677C17.7312 18.8107 17.8121 18.8375 17.8958 18.8461Z" fill="white"/>
<text fill="#111111" xml:space="preserve" style="white-space: pre" font-family="Poppins" font-size="24" font-weight="600" letter-spacing="0.02em"><tspan x="68" y="38.4">Mittal&#x2019;s Travellers</tspan></text>
</svg>
